<svg width="1787" height="1226" xmlns="http://www.w3.org/2000/svg" xmlns:xlink="http://www.w3.org/1999/xlink" overflow="hidden"><defs><clipPath id="clip0"><rect x="54" y="467" width="1787" height="1226"/></clipPath><clipPath id="clip1"><rect x="54" y="467" width="1785" height="1224"/></clipPath><clipPath id="clip2"><rect x="54" y="467" width="1785" height="1224"/></clipPath><clipPath id="clip3"><rect x="54" y="467" width="1785" height="1224"/></clipPath><clipPath id="clip4"><rect x="54" y="467" width="1785" height="1224"/></clipPath><clipPath id="clip5"><rect x="54" y="467" width="1785" height="1224"/></clipPath><clipPath id="clip6"><rect x="54" y="467" width="1785" height="1224"/></clipPath><clipPath id="clip7"><rect x="54" y="467" width="1785" height="1224"/></clipPath><clipPath id="clip8"><rect x="54" y="467" width="1785" height="1224"/></clipPath><clipPath id="clip9"><rect x="54" y="467" width="1785" height="1224"/></clipPath><clipPath id="clip10"><rect x="340" y="637" width="1410" height="951"/></clipPath><clipPath id="clip11"><rect x="54" y="467" width="1785" height="1224"/></clipPath><clipPath id="clip12"><rect x="54" y="467" width="1785" height="1224"/></clipPath><clipPath id="clip13"><rect x="54" y="467" width="1785" height="1224"/></clipPath><clipPath id="clip14"><rect x="54" y="467" width="1785" height="1224"/></clipPath><clipPath id="clip15"><rect x="54" y="467" width="1785" height="1224"/></clipPath><clipPath id="clip16"><rect x="54" y="467" width="1785" height="1224"/></clipPath><clipPath id="clip17"><rect x="54" y="467" width="1785" height="1224"/></clipPath><clipPath id="clip18"><rect x="54" y="467" width="1785" height="1224"/></clipPath><clipPath id="clip19"><rect x="54" y="467" width="1785" height="1224"/></clipPath><clipPath id="clip20"><rect x="54" y="467" width="1785" height="1224"/></clipPath><clipPath id="clip21"><rect x="54" y="467" width="1785" height="1224"/></clipPath><clipPath id="clip22"><rect x="54" y="467" width="1785" height="1224"/></clipPath><clipPath id="clip23"><rect x="54" y="467" width="1785" height="1224"/></clipPath><clipPath id="clip24"><rect x="54" y="467" width="1785" height="1224"/></clipPath><clipPath id="clip25"><rect x="54" y="467" width="1785" height="1224"/></clipPath><clipPath id="clip26"><rect x="54" y="467" width="1785" height="1224"/></clipPath><clipPath id="clip27"><rect x="54" y="467" width="1785" height="1224"/></clipPath><clipPath id="clip28"><rect x="54" y="467" width="1785" height="1224"/></clipPath><clipPath id="clip29"><rect x="54" y="467" width="1785" height="1224"/></clipPath><clipPath id="clip30"><rect x="54" y="467" width="1785" height="1224"/></clipPath><clipPath id="clip31"><rect x="54" y="467" width="1785" height="1224"/></clipPath><clipPath id="clip32"><rect x="54" y="467" width="1785" height="1224"/></clipPath><clipPath id="clip33"><rect x="54" y="467" width="1785" height="1224"/></clipPath><clipPath id="clip34"><rect x="54" y="467" width="1785" height="1224"/></clipPath><clipPath id="clip35"><rect x="54" y="467" width="1785" height="1224"/></clipPath><clipPath id="clip36"><rect x="54" y="467" width="1785" height="1224"/></clipPath><clipPath id="clip37"><rect x="54" y="467" width="1785" height="1224"/></clipPath><clipPath id="clip38"><rect x="54" y="467" width="1785" height="1224"/></clipPath></defs><g clip-path="url(#clip0)" transform="translate(-54 -467)"><rect x="55" y="468" width="1784" height="1223" fill="#0057B7"/><g clip-path="url(#clip1)"><path d="M0 0 0.000360892 947" stroke="#0057B7" stroke-width="3.4375" stroke-linejoin="round" stroke-miterlimit="10" fill="none" fill-rule="evenodd" transform="matrix(1 0 0 -1 340.5 1584.5)"/></g><g clip-path="url(#clip2)"><rect x="281" y="1557" width="21.0003" height="51.0002" fill="#0057B7"/></g><g clip-path="url(#clip3)"><rect x="197" y="1422" width="105" height="49.9999" fill="#0057B7"/></g><g clip-path="url(#clip4)"><rect x="197" y="1287" width="105" height="49.9999" fill="#0057B7"/></g><g clip-path="url(#clip5)"><rect x="197" y="1151" width="105" height="51.0002" fill="#0057B7"/></g><g clip-path="url(#clip6)"><rect x="197" y="1016" width="105" height="49.9999" fill="#0057B7"/></g><g clip-path="url(#clip7)"><rect x="176" y="881" width="126" height="49.9998" fill="#0057B7"/></g><g clip-path="url(#clip8)"><rect x="176" y="745" width="126" height="51.0002" fill="#0057B7"/></g><g clip-path="url(#clip9)"><rect x="176" y="610" width="126" height="49.9998" fill="#0057B7"/></g><g clip-path="url(#clip10)"><path d="M340 787C407 907.879 440.5 1040.32 541 1149.64 641.5 1258.95 809 1395.88 943 1442.9 1077 1489.92 1211 1507 1345 1431.75 1479 1356.51 1613 1138.2 1747 991.423" stroke="#FFFFFF" stroke-width="13.75" stroke-linecap="round" stroke-linejoin="round" stroke-miterlimit="10" fill="none"/></g><g clip-path="url(#clip11)"><rect x="281" y="1557" width="21.0003" height="51.0002" fill="#0057B7"/></g><g clip-path="url(#clip12)"><text fill="#FFFFFF" font-family="Calibri,Calibri_MSFontService,sans-serif" font-weight="400" font-size="41" transform="matrix(1 0 0 1 280.889 1596)">0</text></g><g clip-path="url(#clip13)"><rect x="197" y="1422" width="105" height="49.9999" fill="#0057B7"/></g><g clip-path="url(#clip14)"><text fill="#FFFFFF" font-family="Calibri,Calibri_MSFontService,sans-serif" font-weight="400" font-size="41" transform="matrix(1 0 0 1 197.289 1461)">20000</text></g><g clip-path="url(#clip15)"><rect x="197" y="1287" width="105" height="49.9999" fill="#0057B7"/></g><g clip-path="url(#clip16)"><text fill="#FFFFFF" font-family="Calibri,Calibri_MSFontService,sans-serif" font-weight="400" font-size="41" transform="matrix(1 0 0 1 197.289 1326)">40000</text></g><g clip-path="url(#clip17)"><rect x="197" y="1151" width="105" height="51.0002" fill="#0057B7"/></g><g clip-path="url(#clip18)"><text fill="#FFFFFF" font-family="Calibri,Calibri_MSFontService,sans-serif" font-weight="400" font-size="41" transform="matrix(1 0 0 1 197.289 1190)">60000</text></g><g clip-path="url(#clip19)"><rect x="197" y="1016" width="105" height="49.9999" fill="#0057B7"/></g><g clip-path="url(#clip20)"><text fill="#FFFFFF" font-family="Calibri,Calibri_MSFontService,sans-serif" font-weight="400" font-size="41" transform="matrix(1 0 0 1 197.289 1055)">80000</text></g><g clip-path="url(#clip21)"><rect x="176" y="881" width="126" height="49.9998" fill="#0057B7"/></g><g clip-path="url(#clip22)"><text fill="#FFFFFF" font-family="Calibri,Calibri_MSFontService,sans-serif" font-weight="400" font-size="41" transform="matrix(1 0 0 1 176.389 920)">100000</text></g><g clip-path="url(#clip23)"><rect x="176" y="745" width="126" height="51.0002" fill="#0057B7"/></g><g clip-path="url(#clip24)"><text fill="#FFFFFF" font-family="Calibri,Calibri_MSFontService,sans-serif" font-weight="400" font-size="41" transform="matrix(1 0 0 1 176.389 784)">120000</text></g><g clip-path="url(#clip25)"><rect x="176" y="610" width="126" height="49.9998" fill="#0057B7"/></g><g clip-path="url(#clip26)"><text fill="#FFFFFF" font-family="Calibri,Calibri_MSFontService,sans-serif" font-weight="400" font-size="41" transform="matrix(1 0 0 1 176.389 649)">140000</text></g><g clip-path="url(#clip27)"><text fill="#FFFFFF" font-family="Calibri,Calibri_MSFontService,sans-serif" font-weight="400" font-size="41" transform="matrix(1 0 0 1 298.256 1650)">2020</text></g><g clip-path="url(#clip28)"><text fill="#FFFFFF" font-family="Calibri,Calibri_MSFontService,sans-serif" font-weight="400" font-size="41" transform="matrix(1 0 0 1 499.226 1650)">2030</text></g><g clip-path="url(#clip29)"><text fill="#FFFFFF" font-family="Calibri,Calibri_MSFontService,sans-serif" font-weight="400" font-size="41" transform="matrix(1 0 0 1 700.196 1650)">2040</text></g><g clip-path="url(#clip30)"><text fill="#FFFFFF" font-family="Calibri,Calibri_MSFontService,sans-serif" font-weight="400" font-size="41" transform="matrix(1 0 0 1 901.166 1650)">2050</text></g><g clip-path="url(#clip31)"><text fill="#FFFFFF" font-family="Calibri,Calibri_MSFontService,sans-serif" font-weight="400" font-size="41" transform="matrix(1 0 0 1 1102.14 1650)">2060</text></g><g clip-path="url(#clip32)"><text fill="#FFFFFF" font-family="Calibri,Calibri_MSFontService,sans-serif" font-weight="400" font-size="41" transform="matrix(1 0 0 1 1303.11 1650)">2070</text></g><g clip-path="url(#clip33)"><text fill="#FFFFFF" font-family="Calibri,Calibri_MSFontService,sans-serif" font-weight="400" font-size="41" transform="matrix(1 0 0 1 1504.08 1650)">2080</text></g><g clip-path="url(#clip34)"><text fill="#FFFFFF" font-family="Calibri,Calibri_MSFontService,sans-serif" font-weight="400" font-size="41" transform="matrix(1 0 0 1 1705.05 1650)">2090</text></g><g clip-path="url(#clip35)"><text fill="#FFFFFF" font-family="Calibri,Calibri_MSFontService,sans-serif" font-weight="700" font-size="41" transform="matrix(6.12323e-17 -1 1 6.12323e-17 151.295 1436)">Total Predicted Suitable Habitat (km</text></g><g clip-path="url(#clip36)"><text fill="#FFFFFF" font-family="Calibri,Calibri_MSFontService,sans-serif" font-weight="700" font-size="41" transform="matrix(6.12323e-17 -1 1 6.12323e-17 151.295 814)">²</text></g><g clip-path="url(#clip37)"><text fill="#FFFFFF" font-family="Calibri,Calibri_MSFontService,sans-serif" font-weight="700" font-size="41" transform="matrix(6.12323e-17 -1 1 6.12323e-17 151.295 800)">)</text></g><g clip-path="url(#clip38)"><text fill="#FFFFFF" font-family="Calibri,Calibri_MSFontService,sans-serif" font-weight="700" font-size="64" transform="matrix(1 0 0 1 559.751 563)">Total Habitable Area: RCP 2.6 </text></g><rect x="55.4998" y="468.5" width="1784" height="1223" stroke="#D9D9D9" stroke-width="3.4375" stroke-linejoin="round" stroke-miterlimit="10" fill="none"/></g></svg>