<svg width="1787" height="1226" xmlns="http://www.w3.org/2000/svg" xmlns:xlink="http://www.w3.org/1999/xlink" overflow="hidden"><defs><clipPath id="clip0"><rect x="54" y="467" width="1787" height="1226"/></clipPath><clipPath id="clip1"><rect x="54" y="467" width="1785" height="1224"/></clipPath><clipPath id="clip2"><rect x="54" y="467" width="1785" height="1224"/></clipPath><clipPath id="clip3"><rect x="54" y="467" width="1785" height="1224"/></clipPath><clipPath id="clip4"><rect x="54" y="467" width="1785" height="1224"/></clipPath><clipPath id="clip5"><rect x="54" y="467" width="1785" height="1224"/></clipPath><clipPath id="clip6"><rect x="54" y="467" width="1785" height="1224"/></clipPath><clipPath id="clip7"><rect x="54" y="467" width="1785" height="1224"/></clipPath><clipPath id="clip8"><rect x="54" y="467" width="1785" height="1224"/></clipPath><clipPath id="clip9"><rect x="54" y="467" width="1785" height="1224"/></clipPath><clipPath id="clip10"><rect x="411" y="699" width="1325" height="863"/></clipPath><clipPath id="clip11"><rect x="54" y="467" width="1785" height="1224"/></clipPath><clipPath id="clip12"><rect x="54" y="467" width="1785" height="1224"/></clipPath><clipPath id="clip13"><rect x="54" y="467" width="1785" height="1224"/></clipPath><clipPath id="clip14"><rect x="54" y="467" width="1785" height="1224"/></clipPath><clipPath id="clip15"><rect x="54" y="467" width="1785" height="1224"/></clipPath><clipPath id="clip16"><rect x="54" y="467" width="1785" height="1224"/></clipPath><clipPath id="clip17"><rect x="54" y="467" width="1785" height="1224"/></clipPath><clipPath id="clip18"><rect x="54" y="467" width="1785" height="1224"/></clipPath><clipPath id="clip19"><rect x="54" y="467" width="1785" height="1224"/></clipPath><clipPath id="clip20"><rect x="54" y="467" width="1785" height="1224"/></clipPath><clipPath id="clip21"><rect x="54" y="467" width="1785" height="1224"/></clipPath><clipPath id="clip22"><rect x="54" y="467" width="1785" height="1224"/></clipPath><clipPath id="clip23"><rect x="54" y="467" width="1785" height="1224"/></clipPath><clipPath id="clip24"><rect x="54" y="467" width="1785" height="1224"/></clipPath><clipPath id="clip25"><rect x="54" y="467" width="1785" height="1224"/></clipPath><clipPath id="clip26"><rect x="54" y="467" width="1785" height="1224"/></clipPath><clipPath id="clip27"><rect x="54" y="467" width="1785" height="1224"/></clipPath><clipPath id="clip28"><rect x="54" y="467" width="1785" height="1224"/></clipPath><clipPath id="clip29"><rect x="54" y="467" width="1785" height="1224"/></clipPath><clipPath id="clip30"><rect x="54" y="467" width="1785" height="1224"/></clipPath><clipPath id="clip31"><rect x="54" y="467" width="1785" height="1224"/></clipPath><clipPath id="clip32"><rect x="54" y="467" width="1785" height="1224"/></clipPath><clipPath id="clip33"><rect x="54" y="467" width="1785" height="1224"/></clipPath><clipPath id="clip34"><rect x="54" y="467" width="1785" height="1224"/></clipPath><clipPath id="clip35"><rect x="54" y="467" width="1785" height="1224"/></clipPath><clipPath id="clip36"><rect x="54" y="467" width="1785" height="1224"/></clipPath><clipPath id="clip37"><rect x="54" y="467" width="1785" height="1224"/></clipPath><clipPath id="clip38"><rect x="54" y="467" width="1785" height="1224"/></clipPath></defs><g clip-path="url(#clip0)" transform="translate(-54 -467)"><rect x="55" y="468" width="1784" height="1223" fill="#0057B7"/><g clip-path="url(#clip1)"><path d="M0 0 0.000360892 860" stroke="#0057B7" stroke-width="3.4375" stroke-linejoin="round" stroke-miterlimit="10" fill="none" fill-rule="evenodd" transform="matrix(1 0 0 -1 411.5 1559.5)"/></g><g clip-path="url(#clip2)"><rect x="333" y="1523" width="26.9998" height="66.9996" fill="#0057B7"/></g><g clip-path="url(#clip3)"><rect x="221" y="1400" width="139" height="67" fill="#0057B7"/></g><g clip-path="url(#clip4)"><rect x="221" y="1277" width="139" height="67" fill="#0057B7"/></g><g clip-path="url(#clip5)"><rect x="221" y="1154" width="139" height="67" fill="#0057B7"/></g><g clip-path="url(#clip6)"><rect x="221" y="1031" width="139" height="68.0001" fill="#0057B7"/></g><g clip-path="url(#clip7)"><rect x="193" y="909" width="167" height="67" fill="#0057B7"/></g><g clip-path="url(#clip8)"><rect x="193" y="786" width="167" height="66.9997" fill="#0057B7"/></g><g clip-path="url(#clip9)"><rect x="193" y="663" width="167" height="67" fill="#0057B7"/></g><g clip-path="url(#clip10)"><path d="M411 835C473.952 944.799 505.428 1065.1 599.857 1164.4 694.286 1263.69 851.667 1388.07 977.571 1430.78 1103.48 1473.48 1229.38 1489 1355.29 1420.65 1481.19 1352.3 1607.1 1154.01 1733 1020.68" stroke="#FFFFFF" stroke-width="13.75" stroke-linecap="round" stroke-linejoin="round" stroke-miterlimit="10" fill="none"/></g><g clip-path="url(#clip11)"><rect x="333" y="1523" width="26.9998" height="66.9996" fill="#0057B7"/></g><g clip-path="url(#clip12)"><text fill="#FFFFFF" font-family="Calibri,Calibri_MSFontService,sans-serif" font-weight="400" font-size="55" transform="matrix(1 0 0 1 332.52 1575)">0</text></g><g clip-path="url(#clip13)"><rect x="221" y="1400" width="139" height="67" fill="#0057B7"/></g><g clip-path="url(#clip14)"><text fill="#FFFFFF" font-family="Calibri,Calibri_MSFontService,sans-serif" font-weight="400" font-size="55" transform="matrix(1 0 0 1 221.054 1452)">20000</text></g><g clip-path="url(#clip15)"><rect x="221" y="1277" width="139" height="67" fill="#0057B7"/></g><g clip-path="url(#clip16)"><text fill="#FFFFFF" font-family="Calibri,Calibri_MSFontService,sans-serif" font-weight="400" font-size="55" transform="matrix(1 0 0 1 221.054 1329)">40000</text></g><g clip-path="url(#clip17)"><rect x="221" y="1154" width="139" height="67" fill="#0057B7"/></g><g clip-path="url(#clip18)"><text fill="#FFFFFF" font-family="Calibri,Calibri_MSFontService,sans-serif" font-weight="400" font-size="55" transform="matrix(1 0 0 1 221.054 1206)">60000</text></g><g clip-path="url(#clip19)"><rect x="221" y="1031" width="139" height="68.0001" fill="#0057B7"/></g><g clip-path="url(#clip20)"><text fill="#FFFFFF" font-family="Calibri,Calibri_MSFontService,sans-serif" font-weight="400" font-size="55" transform="matrix(1 0 0 1 221.054 1083)">80000</text></g><g clip-path="url(#clip21)"><rect x="193" y="909" width="167" height="67" fill="#0057B7"/></g><g clip-path="url(#clip22)"><text fill="#FFFFFF" font-family="Calibri,Calibri_MSFontService,sans-serif" font-weight="400" font-size="55" transform="matrix(1 0 0 1 193.187 961)">100000</text></g><g clip-path="url(#clip23)"><rect x="193" y="786" width="167" height="66.9997" fill="#0057B7"/></g><g clip-path="url(#clip24)"><text fill="#FFFFFF" font-family="Calibri,Calibri_MSFontService,sans-serif" font-weight="400" font-size="55" transform="matrix(1 0 0 1 193.187 838)">120000</text></g><g clip-path="url(#clip25)"><rect x="193" y="663" width="167" height="67" fill="#0057B7"/></g><g clip-path="url(#clip26)"><text fill="#FFFFFF" font-family="Calibri,Calibri_MSFontService,sans-serif" font-weight="400" font-size="55" transform="matrix(1 0 0 1 193.187 715)">140000</text></g><g clip-path="url(#clip27)"><text fill="#FFFFFF" font-family="Calibri,Calibri_MSFontService,sans-serif" font-weight="400" font-size="55" transform="matrix(1 0 0 1 355.682 1646)">2020</text></g><g clip-path="url(#clip28)"><text fill="#FFFFFF" font-family="Calibri,Calibri_MSFontService,sans-serif" font-weight="400" font-size="55" transform="matrix(1 0 0 1 544.467 1646)">2030</text></g><g clip-path="url(#clip29)"><text fill="#FFFFFF" font-family="Calibri,Calibri_MSFontService,sans-serif" font-weight="400" font-size="55" transform="matrix(1 0 0 1 733.252 1646)">2040</text></g><g clip-path="url(#clip30)"><text fill="#FFFFFF" font-family="Calibri,Calibri_MSFontService,sans-serif" font-weight="400" font-size="55" transform="matrix(1 0 0 1 922.038 1646)">2050</text></g><g clip-path="url(#clip31)"><text fill="#FFFFFF" font-family="Calibri,Calibri_MSFontService,sans-serif" font-weight="400" font-size="55" transform="matrix(1 0 0 1 1110.82 1646)">2060</text></g><g clip-path="url(#clip32)"><text fill="#FFFFFF" font-family="Calibri,Calibri_MSFontService,sans-serif" font-weight="400" font-size="55" transform="matrix(1 0 0 1 1299.61 1646)">2070</text></g><g clip-path="url(#clip33)"><text fill="#FFFFFF" font-family="Calibri,Calibri_MSFontService,sans-serif" font-weight="400" font-size="55" transform="matrix(1 0 0 1 1488.39 1646)">2080</text></g><g clip-path="url(#clip34)"><text fill="#FFFFFF" font-family="Calibri,Calibri_MSFontService,sans-serif" font-weight="400" font-size="55" transform="matrix(1 0 0 1 1677.18 1646)">2090</text></g><g clip-path="url(#clip35)"><text fill="#FFFFFF" font-family="Calibri,Calibri_MSFontService,sans-serif" font-weight="700" font-size="55" transform="matrix(6.12323e-17 -1 1 6.12323e-17 164.289 1570)">Total Predicted Suitable Habitat (km</text></g><g clip-path="url(#clip36)"><text fill="#FFFFFF" font-family="Calibri,Calibri_MSFontService,sans-serif" font-weight="700" font-size="55" transform="matrix(6.12323e-17 -1 1 6.12323e-17 164.289 749)">²</text></g><g clip-path="url(#clip37)"><text fill="#FFFFFF" font-family="Calibri,Calibri_MSFontService,sans-serif" font-weight="700" font-size="55" transform="matrix(6.12323e-17 -1 1 6.12323e-17 164.289 730)">)</text></g><g clip-path="url(#clip38)"><text fill="#FFFFFF" font-family="Calibri,Calibri_MSFontService,sans-serif" font-weight="700" font-size="110" transform="matrix(1 0 0 1 283.124 607)">Total Habitable Area: RCP 2.6 </text></g><rect x="55.4998" y="468.5" width="1784" height="1223" stroke="#0057B7" stroke-width="3.4375" stroke-linejoin="round" stroke-miterlimit="10" fill="none"/></g></svg>