<svg width="1787" height="1226" xmlns="http://www.w3.org/2000/svg" xmlns:xlink="http://www.w3.org/1999/xlink" overflow="hidden"><defs><clipPath id="clip0"><rect x="54" y="467" width="1787" height="1226"/></clipPath><clipPath id="clip1"><rect x="54" y="467" width="1785" height="1224"/></clipPath><clipPath id="clip2"><rect x="54" y="467" width="1785" height="1224"/></clipPath><clipPath id="clip3"><rect x="54" y="467" width="1785" height="1224"/></clipPath><clipPath id="clip4"><rect x="54" y="467" width="1785" height="1224"/></clipPath><clipPath id="clip5"><rect x="54" y="467" width="1785" height="1224"/></clipPath><clipPath id="clip6"><rect x="54" y="467" width="1785" height="1224"/></clipPath><clipPath id="clip7"><rect x="654" y="716" width="1054" height="795"/></clipPath><clipPath id="clip8"><rect x="54" y="467" width="1785" height="1224"/></clipPath><clipPath id="clip9"><rect x="54" y="467" width="1785" height="1224"/></clipPath><clipPath id="clip10"><rect x="54" y="467" width="1785" height="1224"/></clipPath><clipPath id="clip11"><rect x="54" y="467" width="1785" height="1224"/></clipPath><clipPath id="clip12"><rect x="54" y="467" width="1785" height="1224"/></clipPath><clipPath id="clip13"><rect x="54" y="467" width="1785" height="1224"/></clipPath><clipPath id="clip14"><rect x="54" y="467" width="1785" height="1224"/></clipPath><clipPath id="clip15"><rect x="54" y="467" width="1785" height="1224"/></clipPath><clipPath id="clip16"><rect x="54" y="467" width="1785" height="1224"/></clipPath><clipPath id="clip17"><rect x="54" y="467" width="1785" height="1224"/></clipPath><clipPath id="clip18"><rect x="54" y="467" width="1785" height="1224"/></clipPath><clipPath id="clip19"><rect x="54" y="467" width="1785" height="1224"/></clipPath><clipPath id="clip20"><rect x="54" y="467" width="1785" height="1224"/></clipPath><clipPath id="clip21"><rect x="54" y="467" width="1785" height="1224"/></clipPath><clipPath id="clip22"><rect x="54" y="467" width="1785" height="1224"/></clipPath><clipPath id="clip23"><rect x="54" y="467" width="1785" height="1224"/></clipPath><clipPath id="clip24"><rect x="54" y="467" width="1785" height="1224"/></clipPath><clipPath id="clip25"><rect x="54" y="467" width="1785" height="1224"/></clipPath><clipPath id="clip26"><rect x="54" y="467" width="1785" height="1224"/></clipPath></defs><g clip-path="url(#clip0)" transform="translate(-54 -467)"><rect x="55" y="468" width="1784" height="1223" fill="#5E8262"/><g clip-path="url(#clip1)"><path d="M0 0 0.000360892 792" stroke="#5E8262" stroke-width="3.4375" stroke-linejoin="round" stroke-miterlimit="10" fill="none" fill-rule="evenodd" transform="matrix(1 0 0 -1 654.5 1508.5)"/></g><g clip-path="url(#clip2)"><rect x="537" y="1453" width="40.9999" height="101" fill="#5E8262"/></g><g clip-path="url(#clip3)"><rect x="369" y="1255" width="209" height="101" fill="#5E8262"/></g><g clip-path="url(#clip4)"><rect x="369" y="1057" width="209" height="101" fill="#5E8262"/></g><g clip-path="url(#clip5)"><rect x="327" y="859" width="251" height="101" fill="#5E8262"/></g><g clip-path="url(#clip6)"><rect x="327" y="661" width="251" height="101" fill="#5E8262"/></g><g clip-path="url(#clip7)"><path d="M655 924C705 1045.62 730 1205.74 805 1288.86 880 1371.99 1005 1388.13 1105 1422.73 1205 1457.33 1305 1482.93 1405 1496.46 1505 1510 1605 1501.45 1705 1503.95" stroke="#FFFFFF" stroke-width="13.75" stroke-linecap="round" stroke-linejoin="round" stroke-miterlimit="10" fill="none"/></g><g clip-path="url(#clip8)"><rect x="537" y="1453" width="40.9999" height="101" fill="#5E8262"/></g><g clip-path="url(#clip9)"><text fill="#FFFFFF" font-family="Calibri,Calibri_MSFontService,sans-serif" font-weight="400" font-size="83" transform="matrix(1 0 0 1 536.594 1532)">0</text></g><g clip-path="url(#clip10)"><rect x="369" y="1255" width="209" height="101" fill="#5E8262"/></g><g clip-path="url(#clip11)"><text fill="#FFFFFF" font-family="Calibri,Calibri_MSFontService,sans-serif" font-weight="400" font-size="83" transform="matrix(1 0 0 1 369.302 1334)">40000</text></g><g clip-path="url(#clip12)"><rect x="369" y="1057" width="209" height="101" fill="#5E8262"/></g><g clip-path="url(#clip13)"><text fill="#FFFFFF" font-family="Calibri,Calibri_MSFontService,sans-serif" font-weight="400" font-size="83" transform="matrix(1 0 0 1 369.302 1136)">80000</text></g><g clip-path="url(#clip14)"><rect x="327" y="859" width="251" height="101" fill="#5E8262"/></g><g clip-path="url(#clip15)"><text fill="#FFFFFF" font-family="Calibri,Calibri_MSFontService,sans-serif" font-weight="400" font-size="83" transform="matrix(1 0 0 1 327.479 938)">120000</text></g><g clip-path="url(#clip16)"><rect x="327" y="661" width="251" height="101" fill="#5E8262"/></g><g clip-path="url(#clip17)"><text fill="#FFFFFF" font-family="Calibri,Calibri_MSFontService,sans-serif" font-weight="400" font-size="83" transform="matrix(1 0 0 1 327.479 740)">160000</text></g><g clip-path="url(#clip18)"><text fill="#FFFFFF" font-family="Calibri,Calibri_MSFontService,sans-serif" font-weight="400" font-size="83" transform="matrix(1 0 0 1 571.316 1640)">2020</text></g><g clip-path="url(#clip19)"><text fill="#FFFFFF" font-family="Calibri,Calibri_MSFontService,sans-serif" font-weight="400" font-size="83" transform="matrix(1 0 0 1 871.327 1640)">2040</text></g><g clip-path="url(#clip20)"><text fill="#FFFFFF" font-family="Calibri,Calibri_MSFontService,sans-serif" font-weight="400" font-size="83" transform="matrix(1 0 0 1 1171.34 1640)">2060</text></g><g clip-path="url(#clip21)"><text fill="#FFFFFF" font-family="Calibri,Calibri_MSFontService,sans-serif" font-weight="400" font-size="83" transform="matrix(1 0 0 1 1471.35 1640)">2080</text></g><g clip-path="url(#clip22)"><text fill="#FFFFFF" font-family="Calibri,Calibri_MSFontService,sans-serif" font-weight="700" font-size="83" transform="matrix(6.12323e-17 -1 1 6.12323e-17 191.285 1539)">Total Predicted Suitable </text></g><g clip-path="url(#clip23)"><text fill="#FFFFFF" font-family="Calibri,Calibri_MSFontService,sans-serif" font-weight="700" font-size="83" transform="matrix(6.12323e-17 -1 1 6.12323e-17 291.3 1363)">Habitat (km</text></g><g clip-path="url(#clip24)"><text fill="#FFFFFF" font-family="Calibri,Calibri_MSFontService,sans-serif" font-weight="700" font-size="83" transform="matrix(6.12323e-17 -1 1 6.12323e-17 291.3 959)">²</text></g><g clip-path="url(#clip25)"><text fill="#FFFFFF" font-family="Calibri,Calibri_MSFontService,sans-serif" font-weight="700" font-size="83" transform="matrix(6.12323e-17 -1 1 6.12323e-17 291.3 931)">)</text></g><g clip-path="url(#clip26)"><text fill="#FFFFFF" font-family="Calibri,Calibri_MSFontService,sans-serif" font-weight="700" font-size="110" transform="matrix(1 0 0 1 429.79 634)">Total Habitable Area: RCP 8.5 </text></g><rect x="55.4998" y="468.5" width="1784" height="1223" stroke="#5E8262" stroke-width="3.4375" stroke-linejoin="round" stroke-miterlimit="10" fill="none"/></g></svg>